<svg xmlns="http://www.w3.org/2000/svg" viewBox="0 0 1159.48 251.9"><defs><style>.cls-1{fill:#fff;}</style></defs><title>Asset 63</title><g id="Layer_2" data-name="Layer 2"><g id="Layer_3" data-name="Layer 3"><path class="cls-1" d="M855.55,21.57C855.55,8.48,866,0,881.6,0a36.31,36.31,0,0,1,19.32,5.36c2.87,1.87,4.24,3.37,4.24,5.11,0,2.37-2.12,5.36-4.61,5.36-1.12,0-2.24-.87-4.61-2.24A27.19,27.19,0,0,0,881.6,9.35c-9.72,0-15.46,4.86-15.46,11.59,0,17.2,40.64,13.09,40.64,39.77C906.78,75.42,894.69,84,879,84A35.17,35.17,0,0,1,858,77.54c-2.62-1.87-4.11-3.62-4.11-5.48,0-2.37,2.24-5.24,4.61-5.24,1.5,0,2.49.87,5.11,2.62,4.49,3.12,9.23,5.24,15.46,5.24,9.85,0,17.08-5.24,17.08-13.34C896.19,42.39,855.55,46.87,855.55,21.57Z"/><path class="cls-1" d="M931.09,78.79c0,2.87-1.62,4.36-5,4.36S921,81.66,921,78.79V6.73c0-4,2.37-5.86,6.86-5.86,5,0,7.35,2.24,9.23,5.36l39,61.46V5.24c0-2.87,1.62-4.36,5-4.36s5.11,1.5,5.11,4.36V77.29c0,4-2.12,5.86-6.23,5.86-4.36,0-6.48-2-8.73-5.61L931.09,15.21Z"/><path class="cls-1" d="M1069,80.16c0,1.75-1.12,3-4.86,3s-5.36-1.12-6.23-4L1051.14,61h-34.91l-6.86,18.2c-.87,2.62-2.24,4-6,4s-4.74-1.25-4.74-3a12.59,12.59,0,0,1,.87-3.74l27.05-69.94c1.62-4.24,3.24-5.61,7.48-5.61,4.61,0,6,1.62,7.48,5.61l26.55,69.94A12.59,12.59,0,0,1,1069,80.16Zm-21.19-28.3-14-37.77L1019.6,51.86Z"/><path class="cls-1" d="M1101.26,57.35a44.16,44.16,0,0,1-9.35-.87V78.79c0,2.87-1.62,4.36-5.24,4.36s-5.36-1.5-5.36-4.36V9.47c0-3.24,0-6.36,5.24-7.6A69.75,69.75,0,0,1,1100,.62c19.2,0,33.29,8.73,33.29,28S1119.46,57.35,1101.26,57.35Zm-.75-9.1c13.59,0,21.69-6.73,21.69-19.2,0-13.71-9.72-19.2-22.31-19.2a47.5,47.5,0,0,0-8,.75V47.37A42.86,42.86,0,0,0,1100.51,48.25Z"/><path class="cls-1" d="M1152.74,83.53a6.35,6.35,0,0,1-6.73-6.73c0-4,2.62-6.61,6.73-6.61s6.73,2.62,6.73,6.61A6.35,6.35,0,0,1,1152.74,83.53ZM1148,55.35c-.25-5.11-.62-46.13-.62-48.87,0-4.49,1.5-5.61,5.49-5.61s5.24,1.12,5.24,5.73c0,2.62-.25,43.63-.5,48.74-.12,3.62-1.37,5-4.86,5S1148.13,59,1148,55.35Z"/><path class="cls-1" d="M352.38,103.5c14.38,0,26.8,3.6,36.94,10.79V33.55c0-5.88,3.27-8.83,10.13-8.83q9.81,0,9.81,8.83V241.77c0,6.21-3.27,8.83-9.48,8.83-6.54,0-9.15-2.61-9.15-7.52v-9.15q-17.16,17.65-43.15,17.65c-37.92,0-65-28.77-65-73.22C282.43,132.59,310.54,103.5,352.38,103.5Zm2,16.67c-31.05,0-51,21.9-51,57.2s19.61,57.53,48.71,57.53c14.06,0,26.48-5.23,37.26-15v-87.6A54.19,54.19,0,0,0,354.34,120.17Z"/><path class="cls-1" d="M553.41,114c2.94-7.19,5.23-9.48,12.09-9.48,6.21,0,8.83,2.29,8.83,5.56,0,2.61-1,5.23-2,8.17l-53,122.25c-3.27,7.52-5.88,10.46-13.73,10.46S494.9,248,492,240.46L440.31,118.21C439,115.27,438,112.65,438,110c0-3.27,2.62-5.56,9.15-5.56,7.19,0,9.48,2.29,12.42,9.48l46.74,112.45Z"/><path class="cls-1" d="M652.12,120.5a58.23,58.23,0,0,0-31.71,8.83c-4.9,3.27-7.19,5.56-10.13,5.56-5.23,0-8.5-5.56-8.5-9.48,0-3.27,2.62-6.54,9.48-10.79,11.44-7.19,25.5-11.44,42.5-11.44,20.59,0,35.3,6.21,43.48,18,5.56,7.85,8.17,19.29,8.17,35.3v85.32c0,5.88-2.61,8.83-9.48,8.83-6.21,0-9.15-2.29-9.15-6.86V233.6c-11.77,12.1-26.8,18-45.44,18-30.07,0-46.74-16.34-46.74-39.88,0-29.75,27.46-44.46,91.2-49.36v-5.23C685.79,132.92,676.64,120.5,652.12,120.5Zm-36,89.89c0,13.73,9.48,24.52,30.73,24.52,14.38,0,27.46-5.23,38.9-15.36V176.07C637.09,181,616.17,189.8,616.17,210.39Z"/><path class="cls-1" d="M760.65,113.3v13.4c8.5-13.08,24.84-23.21,48.05-23.21,17.65,0,33,5.56,41.84,18.31,6.21,9.15,9.48,21.9,9.48,38.9v81.07q0,8.82-9.81,8.83c-6.86,0-10.13-2.94-10.13-8.83V163.64c0-10.79-1.63-21.57-7.52-29.75q-9.32-12.75-29.42-12.75c-20.27,0-34.32,10.13-41.51,21.9v98.72q0,8.82-9.81,8.83c-6.86,0-10.13-2.94-10.13-8.83V113.3c0-5.88,2.94-8.83,9.81-8.83S761,107.75,760.65,113.3Z"/><path class="cls-1" d="M960.36,234.25a48.42,48.42,0,0,0,29.09-9.48c4.9-3.6,6.86-6.21,10.13-6.21,4.9,0,8.83,4.58,8.83,8.83s-3.92,8.17-7.85,11.11c-10.46,8.5-24.84,13.4-40.86,13.4-39.55,0-68-29.75-68-74.53,0-44.46,28.11-74.2,68-74.2,14.38,0,29.09,3.92,40.53,12.75,5.56,3.92,8.17,7.52,8.17,10.79,0,4.25-3.6,9.48-8.83,9.48-2.94,0-4.9-2.61-10.13-6.21-8.17-5.56-17.32-9.48-29.42-9.48-29.09,0-47.4,22.88-47.4,56.22C912.64,210.39,930.94,234.25,960.36,234.25Z"/><path class="cls-1" d="M1154.53,227.39c0,3.27-3.27,7.19-8.83,11.11-12.09,8.83-26.8,13.4-44.13,13.4-43.15,0-68.65-28.44-68.65-74.2,0-45.11,25.17-74.86,64.07-74.86,36.94,0,60.15,26.8,60.15,63.41,0,14.06-4.25,15.69-13.73,15.69h-90.55c2,31.71,18,52.63,49.36,52.63,11.44,0,23.21-2.61,32.69-9.81,5.23-3.6,7.85-6.54,11.11-6.54C1151.26,218.23,1154.53,223.14,1154.53,227.39Zm-101.33-60.8h84c0-28.11-14.71-47.73-40.53-47.73C1071.5,118.86,1056.14,137.49,1053.19,166.59Z"/><path class="cls-1" d="M82.69,131.06c2.3-5.61,4.88-8.26,12.09-8.26,6.56,0,8.48,2.31,8.81,5.92.21,2.35-1,5.46-1.87,7.6l0,0-1.47,3.81h0l-40.1,103.5c-2.3,5.61-4.92,8.24-12.13,8.24-6.56,0-8.85-2.31-8.85-5.94a19.53,19.53,0,0,1,1.58-6.72m-39.16,0A19.53,19.53,0,0,0,0,246c0,3.63,2.3,5.94,8.85,5.94,7.21,0,9.84-2.64,12.13-8.24L38.66,198h0l1.47-3.81,0,0c.89-2.14,2.09-5.25,1.87-7.6-.33-3.61-2.25-5.92-8.81-5.92-7.21,0-9.79,2.65-12.09,8.26m240.95,49.39L187.54,43.09c-3-8.32-6.62-11.32-14.24-11.32-7.95,0-11.26,3-14.57,11.32L82.54,238.25a20.15,20.15,0,0,0-2,7.66c0,3.66,2.32,6,8.94,6,7.29,0,9.94-2.66,12.26-8.33L123,188.29h98.37l20.87,55.28c2,5.66,5,8.33,12.26,8.33,7,0,9.27-2.33,9.27-6A28.62,28.62,0,0,0,262.06,238.25ZM129.91,170.31,172.64,58.08,214.7,170.31Z"/></g></g></svg>